<?xml version="1.0" encoding="UTF-8"?>
<svg width="90px" height="120px" viewBox="0 0 90 120" version="1.1" xmlns="http://www.w3.org/2000/svg" xmlns:xlink="http://www.w3.org/1999/xlink">
    <!-- Generator: Sketch 56.3 (81716) - https://sketch.com -->
    <title>android</title>
    <desc>Created with Sketch.</desc>
    <g id="android" stroke="none" stroke-width="1" fill="none" fill-rule="evenodd">
        <g id="Group-14" transform="translate(3.000000, 5.000000)" fill-rule="nonzero">
            <path d="M77.349598,1.79999995 L5.93819984,1.79999995 C3.6530999,1.79999995 1.79999995,3.6530999 1.79999995,5.93819984 L1.79999995,104.937297 C1.79999995,107.222397 3.6530999,109.075497 5.93819984,109.075497 L77.349598,109.075497 C79.6346979,109.075497 81.4877978,107.222397 81.4877978,104.937297 L81.4877978,5.93819984 C81.4877978,3.6530999 79.6346979,1.79999995 77.349598,1.79999995 Z" id="Path" fill="#D3D6DD"></path>
            <path d="M77.349598,1.79999995 L70.3475981,1.79999995 C72.6335981,1.79999995 74.485798,3.6521999 74.485798,5.93819984 L74.485798,104.937297 C74.485798,107.223297 72.6326981,109.075497 70.3475981,109.075497 L77.349598,109.075497 C79.6346979,109.075497 81.4877978,107.223297 81.4877978,104.937297 L81.4877978,5.93819984 C81.4877978,3.6521999 79.6346979,1.79999995 77.349598,1.79999995 Z" id="Path" fill="#D3D6DD"></path>
            <path d="M5.93819984,1.79999995 L12.9401997,1.79999995 C10.6550997,1.79999995 8.80199977,3.6521999 8.80199977,5.93819984 L8.80199977,104.937297 C8.80199977,107.223297 10.6550997,109.075497 12.9401997,109.075497 L5.93819984,109.075497 C3.6530999,109.075497 1.79999995,107.223297 1.79999995,104.937297 L1.79999995,5.93819984 C1.79999995,3.6521999 3.6521999,1.79999995 5.93819984,1.79999995 Z" id="Path" fill="#D3D6DD"></path>
            <path d="M77.349598,110.875497 L5.93819984,110.875497 C2.66399993,110.875497 -2.84217094e-13,108.211497 -2.84217094e-13,104.937297 L-2.84217094e-13,5.93819984 C-2.84217094e-13,2.66399993 2.66309993,-1.42108547e-13 5.93819984,-1.42108547e-13 L77.349598,-1.42108547e-13 C80.6237979,-1.42108547e-13 83.2877978,2.66399993 83.2877978,5.93819984 L83.2877978,104.937297 C83.2877978,108.211497 80.6237979,110.875497 77.349598,110.875497 Z M5.93819984,3.5999999 C4.64939988,3.5999999 3.5999999,4.64849988 3.5999999,5.93819984 L3.5999999,104.937297 C3.5999999,106.226997 4.64939988,107.275497 5.93819984,107.275497 L77.349598,107.275497 C78.6392979,107.275497 79.6877979,106.226997 79.6877979,104.937297 L79.6877979,5.93819984 C79.6877979,4.64849988 78.6383979,3.5999999 77.349598,3.5999999 L5.93819984,3.5999999 Z" id="Shape" fill="#000000"></path>
            <rect id="Rectangle" fill="#FFFFFF" x="9.72989974" y="10.3382997" width="63.8279983" height="82.7495978"></rect>
            <path d="M73.5578981,94.8878975 L9.72989974,94.8878975 C8.73629977,94.8878975 7.92989979,94.0814975 7.92989979,93.0878975 L7.92989979,10.3391997 C7.92989979,9.34559975 8.73629977,8.53919977 9.72989974,8.53919977 L73.5578981,8.53919977 C74.551498,8.53919977 75.357898,9.34559975 75.357898,10.3391997 L75.357898,93.0878975 C75.357898,94.0823975 74.551498,94.8878975 73.5578981,94.8878975 Z M11.5298997,91.2878976 L71.7578981,91.2878976 L71.7578981,12.1391997 L11.5298997,12.1391997 L11.5298997,91.2878976 Z" id="Shape" fill="#000000"></path>
            <path d="M44.9540988,101.256297 C44.9540988,103.085097 43.4717988,104.566497 41.6438989,104.566497 C39.8150989,104.566497 38.333699,103.084197 38.333699,101.256297 C38.333699,99.4283974 39.8159989,97.9460974 41.6438989,97.9460974 C43.4717988,97.9460974 44.9540988,99.4283974 44.9540988,101.256297 Z" id="Path" fill="#000000"></path>
            <path d="M58.7807984,67.6016982 L24.5069994,67.6016982 L24.5069994,60.4106984 C24.5069994,50.9462987 32.1794991,43.2737989 41.6438989,43.2737989 L41.6438989,43.2737989 C51.1082986,43.2737989 58.7807984,50.9462987 58.7807984,60.4106984 L58.7807984,67.6016982 Z" id="Path" fill="#1EB975"></path>
            <path d="M30.4559992,48.8348987 C29.9951992,48.8348987 29.5352992,48.6593987 29.1833992,48.3074987 L22.7645994,41.8895989 C22.0616994,41.1875989 22.0616994,40.0472989 22.7645994,39.344399 C23.4674994,38.641499 24.6068993,38.641499 25.3106993,39.344399 L31.7294992,45.7622988 C32.4323991,46.4642988 32.4323991,47.6045987 31.7294992,48.3074987 C31.3775992,48.6593987 30.9167992,48.8348987 30.4559992,48.8348987 Z" id="Path" fill="#000000"></path>
            <path d="M52.8308986,48.8348987 C52.3700986,48.8348987 51.9092986,48.6593987 51.5573986,48.3074987 C50.8544987,47.6045987 50.8544987,46.4642988 51.5573986,45.7622988 L57.9761985,39.344399 C58.6790984,38.641499 59.8184984,38.641499 60.5222984,39.344399 C61.2251984,40.0472989 61.2251984,41.1875989 60.5222984,41.8895989 L54.1034986,48.3074987 C53.7524986,48.6593987 53.2916986,48.8348987 52.8308986,48.8348987 Z" id="Path" fill="#000000"></path>
            <path d="M34.0631991,61.5311984 C33.0695991,61.5311984 32.2631991,60.7247984 32.2631991,59.7311984 L32.2631991,56.3327985 C32.2631991,55.3391985 33.0695991,54.5327986 34.0631991,54.5327986 C35.0567991,54.5327986 35.863199,55.3391985 35.863199,56.3327985 L35.863199,59.7311984 C35.863199,60.7247984 35.0576991,61.5311984 34.0631991,61.5311984 Z" id="Path" fill="#000000"></path>
            <path d="M49.2245987,61.5311984 C48.2309987,61.5311984 47.4245987,60.7247984 47.4245987,59.7311984 L47.4245987,56.3327985 C47.4245987,55.3391985 48.2309987,54.5327986 49.2245987,54.5327986 C50.2181987,54.5327986 51.0245986,55.3391985 51.0245986,56.3327985 L51.0245986,59.7311984 C51.0245986,60.7247984 50.2181987,61.5311984 49.2245987,61.5311984 Z" id="Path" fill="#000000"></path>
        </g>
    </g>
</svg>